#!OML:ASF F:\VICON\USERDATA\INSTALL\rory3\rory3.ASF
:FULLY-SPECIFIED
:DEGREES
1
root -0.334871 17.1947 -24.8418 1.29127 -5.77591 -1.13549
lowerback 20.1432 -1.93571 -1.07622
upperback 2.23816 -2.60086 1.96147
thorax -8.69462 -1.17355 3.45622
lowerneck -1.67611 2.90563 -1.35936
upperneck -12.6556 3.50239 -3.51185
head -3.77221 1.9245 -1.01748
rclavicle 1.69961e-014 -1.74931e-014
rhumerus -33.0901 13.4548 -82.0381
rradius 88.2812
rwrist -8.73782
rhand -38.5371 29.3165
rfingers 7.12502
rthumb -11.5572 -0.344798
lclavicle 1.69961e-014 -1.74931e-014
lhumerus -41.2723 -16.3184 95.4562
lradius 106.901
lwrist 21.8253
lhand -37.3607 10.1383
lfingers 7.12502
lthumb -10.4227 39.86
rfemur -22.1412 5.40877 27.1026
rtibia 45.863
rfoot -16.567 -8.45409
rtoes 3.40452
lfemur -7.39759 11.8114 -13.93
ltibia 105.208
lfoot 19.9084 -3.44197
ltoes -2.27909
2
root -0.344809 17.1455 -24.3922 1.57809 -5.30601 -1.61197
lowerback 19.9229 -1.92534 -0.364882
upperback 2.47807 -2.43815 1.92123
thorax -8.35388 -1.12875 2.94363
lowerneck -2.40317 2.79294 -0.789723
upperneck -12.4705 3.37343 -3.58879
head -3.5588 1.83046 -1.11792
rclavicle -1.38155e-014 2.32578e-014
rhumerus -30.3512 13.0472 -82.0598
rradius 89.305
rwrist -8.60341
rhand -38.8102 30.3637
rfingers 7.12502
rthumb -11.8206 0.71731
lclavicle -1.38155e-014 2.32578e-014
lhumerus -42.1526 -15.7795 95.2871
lradius 106.246
lwrist 22.2478
lhand -36.4994 10.7657
lfingers 7.12502
lthumb -9.59171 40.5274
rfemur -20.7177 5.20058 27.5589
rtibia 46.1118
rfoot -18.0948 -8.57959
rtoes 0.849641
lfemur -11.3131 12.1269 -12.9992
ltibia 108.476
lfoot 18.9893 -4.22461
ltoes 1.30591
3
root -0.353462 17.1124 -23.9368 1.78186 -4.79311 -1.5555
lowerback 19.8928 -1.90175 -0.400571
upperback 2.38308 -2.40962 1.9587
thorax -8.43993 -1.11073 2.9992
lowerneck -2.22948 2.6814 -0.727968
upperneck -12.3708 3.22372 -3.60474
head -3.5574 1.75497 -1.1321
rclavicle -3.89618e-014 1.66979e-014
rhumerus -28.3663 12.882 -81.9826
rradius 90.5137
rwrist -8.38406
rhand -38.7177 31.2307
rfingers 7.12502
rthumb -11.7314 1.57919
lclavicle -3.89618e-014 1.66979e-014
lhumerus -43.6871 -14.737 95.4633
lradius 105.741
lwrist 22.7903
lhand -36.1445 11.0972
lfingers 7.12502
lthumb -9.24928 40.8743
rfemur -19.0535 4.92068 27.4954
rtibia 45.8294
rfoot -18.9857 -9.12265
rtoes 0.323755
lfemur -15.3469 12.2328 -13.0486
ltibia 110.985
lfoot 18.2261 -4.49216
ltoes 7.0449
4
root -0.353274 17.109 -23.4753 2.152 -4.19888 -1.91198
lowerback 19.7853 -1.92054 0.0393977
upperback 2.20428 -2.31888 2.15546
thorax -8.59166 -1.07477 2.94035
lowerneck -1.79891 2.44478 -0.600216
upperneck -12.4638 2.8758 -3.81994
head -3.67267 1.58965 -1.22791
rclavicle -3.47873e-016 1.64991e-014
rhumerus -26.8157 12.5539 -81.8786
rradius 92.0499
rwrist -7.98844
rhand -38.4689 31.0995
rfingers 7.12502
rthumb -11.4915 1.43453
lclavicle -3.47873e-016 1.64991e-014
lhumerus -45.0294 -13.9961 95.7186
lradius 105.341
lwrist 23.3881
lhand -35.8143 11.5126
lfingers 7.12502
lthumb -8.9306 41.3036
rfemur -17.4058 4.56817 27.8944
rtibia 45.3773
rfoot -19.6617 -9.66107
rtoes -3.70917
lfemur -19.5023 12.2814 -12.7288
ltibia 113.013
lfoot 16.8534 -4.74296
ltoes 1.67184
5
root -0.343192 17.1158 -23.02 2.24717 -3.62743 -2.37685
lowerback 19.9549 -1.79322 0.837748
upperback 2.33034 -1.97376 2.18291
thorax -8.58814 -0.936386 2.42666
lowerneck -2.71814 2.136 0.00932131
upperneck -11.8519 2.46958 -4.12901
head -3.2836 1.35768 -1.39656
rclavicle 1.38652e-014 1.98785e-014
rhumerus -25.1036 11.5205 -81.8443
rradius 93.6277
rwrist -7.31192
rhand -38.2407 30.9002
rfingers 7.12502
rthumb -11.2714 1.22305
lclavicle 1.38652e-014 1.98785e-014
lhumerus -45.6252 -14.2247 95.7907
lradius 104.891
lwrist 24.1664
lhand -36.1053 11.6353
lfingers 7.12502
lthumb -9.21142 41.4141
rfemur -15.3096 4.10076 28.388
rtibia 44.7028
rfoot -20.0232 -10.0368
rtoes -4.61389
lfemur -23.438 12.2328 -12.5657
ltibia 114.436
lfoot 14.9971 -4.83228
ltoes -8.2562
6
root -0.34488 17.1304 -22.5694 2.08635 -3.26303 -2.45067
lowerback 20.7616 -1.66795 0.741716
upperback 1.84268 -1.77329 2.45502
thorax -9.56154 -0.817905 2.77508
lowerneck -1.67182 2.02627 -0.413195
upperneck -11.5905 2.31205 -4.1542
head -3.39575 1.30615 -1.34204
rclavicle 1.03368e-014 -1.98785e-014
rhumerus -24.5562 11.573 -81.7506
rradius 95.1067
rwrist -6.79758
rhand -38.3937 31.4161
rfingers 7.12502
rthumb -11.4189 1.74708
lclavicle 1.03368e-014 -1.98785e-014
lhumerus -47.4406 -13.4568 96.4671
lradius 104.622
lwrist 24.6805
lhand -37.1834 12.6975
lfingers 7.12502
lthumb -10.2516 42.4277
rfemur -12.9834 3.60621 28.5173
rtibia 43.8636
rfoot -19.2008 -10.1097
rtoes -4.60694
lfemur -26.9266 11.9007 -13.111
ltibia 115.123
lfoot 13.8199 -4.93836
ltoes -14.8666
7
root -0.361635 17.193 -22.0904 2.28808 -3.46292 -2.62999
lowerback 20.8408 -1.08916 0.920663
upperback 1.84159 -0.983807 2.32145
thorax -9.64172 -0.453234 2.3037
lowerneck -2.70527 1.57072 0.144818
upperneck -10.8021 1.74206 -4.19072
head -2.94096 0.982226 -1.40851
rclavicle -6.95746e-016 1.66979e-014
rhumerus -23.4501 10.2223 -81.8529
rradius 96.694
rwrist -6.76811
rhand -37.342 30.4924
rfingers 7.12502
rthumb -10.4045 0.769825
lclavicle -6.95746e-016 1.66979e-014
lhumerus -48.1477 -14.096 96.4868
lradius 104.42
lwrist 25.0582
lhand -37.6298 18.3003
lfingers 7.12502
lthumb -10.6822 48.0087
rfemur -11.2131 3.58139 28.8251
rtibia 42.8499
rfoot -18.2074 -10.5501
rtoes -11.6666
lfemur -30.113 12.0212 -13.409
ltibia 114.916
lfoot 13.4995 -5.48401
ltoes -16.0323
